<?xml version="1.0" encoding="UTF-8"?>
<svg width="151px" height="28px" viewBox="0 0 151 28" version="1.1" xmlns="http://www.w3.org/2000/svg" xmlns:xlink="http://www.w3.org/1999/xlink">
    <!-- Generator: Sketch 44.1 (41455) - http://www.bohemiancoding.com/sketch -->
    <title>MileIQLogo - Nav Rev</title>
    <desc>Created with Sketch.</desc>
    <defs></defs>
    <g id="Symbols" stroke="none" stroke-width="1" fill="none" fill-rule="evenodd">
        <g id="MileIQLogo---Nav-Rev">
            <path d="M100.676881,3.29307353 L98.6375171,3.29307353 C98.328078,3.29307353 98.0759918,3.54466176 98.0759918,3.85647059 L98.0759918,23.6650294 C98.0759918,23.9755 98.328078,24.2284265 98.6375171,24.2284265 L100.676881,24.2284265 C100.98632,24.2284265 101.238406,23.9755 101.238406,23.6650294 L101.238406,3.85647059 C101.238406,3.54466176 100.98632,3.29307353 100.676881,3.29307353 L100.676881,3.29307353 Z M107.954036,15.7667647 L107.962038,15.6516765 C108.083413,14.0752353 109.374521,12.3984265 111.533926,12.3984265 C114.106806,12.3984265 115.081806,14.1528529 115.135157,15.6556912 L115.139159,15.7667647 L107.954036,15.7667647 Z M111.504583,9.77816176 C108.164774,9.77816176 104.71026,12.5349265 104.71026,17.1491618 C104.71026,22.0832353 108.303488,24.6660294 111.854036,24.6660294 C114.765698,24.6660294 117.071819,23.1578382 118.024145,20.6325882 C118.050821,20.5603235 118.046819,20.4827059 118.012141,20.4104412 C117.974795,20.3328235 117.908105,20.2752794 117.828078,20.2511912 L115.647332,19.5713676 C115.528625,19.5713676 115.420588,19.6489853 115.371238,19.76675 C114.75236,21.2214118 113.570622,21.9601176 111.854036,21.9601176 C109.67329,21.9601176 107.962038,20.3221176 107.874008,18.1461471 L107.870007,18.0350735 L118.249555,18.0979706 C118.270896,18.0364118 118.326915,17.5961324 118.326915,17.0608382 C118.326915,12.5697206 115.712688,9.77816176 111.504583,9.77816176 L111.504583,9.77816176 Z M145.270793,18.8192794 L145.1921,18.9263382 L142.104378,15.4843971 C141.997674,15.3666324 141.846956,15.2997206 141.688235,15.2997206 C141.553523,15.2997206 141.424145,15.3478971 141.322777,15.4335441 L139.951642,16.6085147 C139.835602,16.7075441 139.766245,16.8467206 139.755575,16.9992794 C139.746238,17.1531765 139.796922,17.3003824 139.899624,17.4141324 L142.941997,20.8065588 L142.813953,20.8694559 C141.894973,21.3150882 140.811936,21.5506176 139.680882,21.5506176 C136.306395,21.5506176 132.673153,19.17525 132.673153,13.9641618 C132.673153,8.75307353 136.306395,6.37904412 139.680882,6.37904412 C143.070041,6.37904412 146.717955,8.75307353 146.717955,13.9641618 C146.717955,15.8684706 146.229788,17.5024559 145.270793,18.8192794 L145.270793,18.8192794 Z M147.368844,21.3552353 L147.432866,21.2829706 C149.168126,19.35725 150.084439,16.8266471 150.084439,13.9641618 C150.084439,7.03210294 144.725274,3.29307353 139.680882,3.29307353 C134.652497,3.29307353 129.306669,7.03210294 129.306669,13.9641618 C129.306669,20.9898971 134.525787,24.6660294 139.680882,24.6660294 C141.553523,24.6660294 143.448837,24.1628529 145.014706,23.2501765 L145.088064,23.2060147 L147.243468,25.5693382 C147.350171,25.6830882 147.499555,25.75 147.658276,25.75 C147.791655,25.75 147.919699,25.7031618 148.022401,25.6175147 L149.368194,24.4652941 C149.484234,24.3662647 149.553591,24.2270882 149.564261,24.0731912 C149.574932,23.9219706 149.524248,23.7761029 149.42288,23.6610147 L147.368844,21.3552353 Z M126.173598,3.73067647 L123.959508,3.73067647 C123.650068,3.73067647 123.396648,3.98494118 123.396648,4.29407353 L123.396648,23.6650294 C123.396648,23.9755 123.650068,24.2284265 123.959508,24.2284265 L126.173598,24.2284265 C126.484371,24.2284265 126.735123,23.9755 126.735123,23.6650294 L126.735123,4.29407353 C126.735123,3.98494118 126.484371,3.73067647 126.173598,3.73067647 L126.173598,3.73067647 Z M84.9354993,3.73067647 L81.5263338,3.73067647 C81.202223,3.73067647 80.8234268,3.98494118 80.6980506,4.28336765 L74.605301,18.8513971 C74.4892613,19.1310882 74.3305404,19.1725735 74.2478454,19.1725735 C74.1651505,19.1725735 74.0064295,19.1310882 73.8890561,18.8527353 L67.7149453,4.28202941 C67.5869015,3.98494118 67.2067715,3.73067647 66.8839945,3.73067647 L63.5615253,3.73067647 C63.2520862,3.73067647 63,3.98494118 63,4.29407353 L63,23.6650294 C63,23.9755 63.2520862,24.2284265 63.5615253,24.2284265 L65.6315663,24.2284265 C65.9410055,24.2284265 66.1930917,23.9755 66.1930917,23.6650294 L66.1930917,9.81563235 C66.1930917,9.71660294 66.1930917,9.4155 66.3851573,9.4155 C66.4851915,9.4155 66.5692202,9.51051471 66.6585841,9.72195588 L72.5165869,23.6743971 C72.6406293,23.9755 73.0207592,24.2284265 73.34487,24.2284265 L75.0361149,24.2284265 C75.3615595,24.2284265 75.7403557,23.9755 75.8657319,23.6757353 L81.7797538,9.66307353 C81.8691176,9.45163235 81.9531464,9.35661765 82.0545144,9.35661765 C82.24658,9.35661765 82.24658,9.65905882 82.24658,9.75675 L82.24658,23.6650294 C82.24658,23.9755 82.4986662,24.2284265 82.8081053,24.2284265 L84.9354993,24.2284265 C85.2449384,24.2284265 85.4970246,23.9755 85.4970246,23.6650294 L85.4970246,4.29407353 C85.4970246,3.98494118 85.2449384,3.73067647 84.9354993,3.73067647 L84.9354993,3.73067647 Z M92.9342339,10.2171029 L90.9242134,10.2171029 C90.6147743,10.2171029 90.3626881,10.4686912 90.3626881,10.7805 L90.3626881,23.6650294 C90.3626881,23.9755 90.6147743,24.2284265 90.9242134,24.2284265 L92.9342339,24.2284265 C93.2436731,24.2284265 93.4957592,23.9755 93.4957592,23.6650294 L93.4957592,10.7805 C93.4957592,10.4686912 93.2436731,10.2171029 92.9342339,10.2171029 L92.9342339,10.2171029 Z M91.9138851,3 C90.7681601,3 89.8385089,3.94747059 89.8385089,5.11307353 C89.8385089,6.26261765 90.7681601,7.19670588 91.9138851,7.19670588 C93.0942886,7.19670588 94.0199384,6.28135294 94.0199384,5.11307353 C94.0199384,3.94747059 93.0742818,3 91.9138851,3 L91.9138851,3 Z" id="MileIQ-type" fill="#000000"></path>
            <path d="M25.0334884,19.165 C25.0334884,20.1716 25.8497674,20.992 26.8530233,20.992 C27.8562791,20.992 28.6725581,20.1716 28.6725581,19.165 L28.6725581,6.845 C28.6725581,3.6222 26.0590698,1 22.8469767,1 C19.6586047,1 17.0451163,3.604 17.0227907,6.7946 L16.484186,18.2704 C16.484186,18.9298 16.3237209,20.4642 14.8362791,20.4642 C13.4060465,20.4642 13.1883721,19.0418 13.1869767,18.185 L12.6497674,6.803 C12.6274419,3.604 10.0139535,1 6.8255814,1 C3.61348837,1 1,3.6222 1,6.845 L1,25.5322 C1,26.5388 1.81627907,27.3578 2.81953488,27.3578 C3.8227907,27.3578 4.63906977,26.5388 4.63906977,25.5322 L4.63906977,6.845 C4.63906977,5.6354 5.62,4.6526 6.8255814,4.6526 C8.02976744,4.6526 9.01209302,5.6354 9.01209302,6.8548 L9.55348837,18.3656 C9.59534884,21.6976 11.8167442,24.1154 14.8362791,24.1154 C17.8544186,24.1154 20.0772093,21.6906 20.1204651,18.3572 L20.6604651,6.845 C20.6604651,5.6354 21.6413953,4.6526 22.8469767,4.6526 C24.0525581,4.6526 25.0334884,5.6354 25.0334884,6.845 L25.0334884,19.165 Z M26.8530233,23.3916 C25.6767442,23.3916 24.7195349,24.352 24.7195349,25.5322 C24.7195349,26.7124 25.6767442,27.6714 26.8530233,27.6714 C28.027907,27.6714 28.9851163,26.7124 28.9851163,25.5322 C28.9851163,24.352 28.027907,23.3916 26.8530233,23.3916 L26.8530233,23.3916 Z" id="Fill-1" fill="#FFB214"></path>
            <path d="M45.5,2 L45.5,25" id="Stroke-24" stroke-opacity="0.296478714" stroke="#000000" stroke-linecap="round" stroke-linejoin="round"></path>
        </g>
    </g>
</svg>